<svg xmlns="http://www.w3.org/2000/svg" xmlns:xlink="http://www.w3.org/1999/xlink" viewBox="0 0 319.1 350.42"><defs><style>.cls-1,.cls-4{fill:none;}.cls-2{opacity:0.3;}.cls-3{fill:#9ab0bb;}.cls-4{stroke:#9ab0bb;stroke-miterlimit:10;}.cls-5{clip-path:url(#clip-path);}</style><clipPath id="clip-path" transform="translate(0 118.08)"><rect class="cls-1" x="121.53" y="7.15" width="75.27" height="75.27"/></clipPath></defs><g id="Capa_2" data-name="Capa 2"><g id="Capa_2-2" data-name="Capa 2"><g class="cls-2"><rect class="cls-3" x="4.47" y="125.67" width="74.01" height="74.01"/><rect class="cls-4" x="0.5" y="121.69" width="81.96" height="81.96"/><rect class="cls-4" x="118.18" y="121.89" width="81.96" height="81.96"/><polygon class="cls-3" points="311.86 194.36 271.36 194.79 230.85 195.21 250.74 159.92 270.62 124.63 291.24 159.5 311.86 194.36"/><polygon class="cls-4" points="318.23 199.78 271.36 200.27 224.48 200.76 247.5 159.92 270.51 119.08 294.37 159.43 318.23 199.78"/><g class="cls-5"><rect class="cls-3" x="-58.54" y="26.41" width="322.6" height="5.87" transform="translate(32.74 228.15) rotate(-65)"/><polygon class="cls-3" points="167.04 24.85 181.71 6.27 55.5 277.94 40.82 296.52 167.04 24.85"/><polygon class="cls-3" points="165.81 49.71 189.85 10.06 73.75 261.02 49.71 300.66 165.81 49.71"/><polygon class="cls-3" points="164.59 74.56 197.98 13.86 92 244.11 58.61 304.81 164.59 74.56"/><polygon class="cls-3" points="163.36 99.41 206.11 17.65 110.25 227.19 67.5 308.96 163.36 99.41"/><polygon class="cls-3" points="162.13 124.26 214.24 21.44 128.5 210.28 76.39 313.1 162.13 124.26"/><polygon class="cls-3" points="160.91 149.12 222.37 25.23 146.75 193.36 85.28 317.25 160.91 149.12"/><polygon class="cls-3" points="159.68 173.97 230.51 29.02 165 176.45 94.17 321.39 159.68 173.97"/><polygon class="cls-3" points="158.45 198.82 238.64 32.81 183.25 159.53 103.06 325.54 158.45 198.82"/><polygon class="cls-3" points="157.23 223.68 246.77 36.61 201.5 142.62 111.95 329.69 157.23 223.68"/><polygon class="cls-3" points="156 248.53 254.9 40.4 219.75 125.7 120.84 333.83 156 248.53"/><polygon class="cls-3" points="154.78 273.38 263.03 44.19 238 108.79 129.74 337.98 154.78 273.38"/><polygon class="cls-3" points="153.55 298.23 271.17 47.98 256.25 91.88 138.63 342.13 153.55 298.23"/><polygon class="cls-3" points="152.32 323.09 279.3 51.77 274.5 74.96 147.52 346.27 152.32 323.09"/><rect class="cls-3" x="60.62" y="81.98" width="322.6" height="5.87" transform="translate(51.18 368.24) rotate(-65)"/></g></g></g></g></svg>