<svg xmlns="http://www.w3.org/2000/svg" viewBox="0 0 238.59 94.07"><defs><style>.cls-1{opacity:0.3;}.cls-2{fill:#9ab0bb;}.cls-3{fill:none;stroke:#9ab0bb;stroke-miterlimit:10;stroke-width:3px;}</style></defs><g id="Capa_2" data-name="Capa 2"><g id="Capa_2-2" data-name="Capa 2"><g class="cls-1"><polygon class="cls-2" points="231.29 32 203.93 59.36 238.59 94.02 205.76 94.02 172.92 61.19 200.97 33.14 231.29 32"/><polygon class="cls-2" points="187.51 32 160.15 59.36 194.81 94.02 161.98 94.02 129.15 61.19 157.19 33.14 187.51 32"/><polygon class="cls-2" points="111.65 32 143.94 32 115.75 60.19 149.12 93.56 118.93 93.56 102.01 76.64 84.59 94.07 52.04 94.07 111.65 32"/><polygon class="cls-2" points="68.68 32 100.58 32 38.94 93.64 8.32 93.64 68.68 32"/><polygon class="cls-2" points="21.16 59.73 36.48 59.73 63.71 32.5 48.81 32.5 21.16 59.73"/><polygon class="cls-2" points="0 59.73 15.32 59.73 42.55 32.5 27.65 32.5 0 59.73"/></g><g class="cls-1"><line class="cls-3" x1="7" y1="7.7" x2="231" y2="7.7"/><line class="cls-3" x1="85.88" x2="85.88" y2="7.7"/><line class="cls-3" x1="18.46" x2="18.46" y2="7.7"/><line class="cls-3" x1="7.98" x2="7.98" y2="7.7"/></g></g></g></svg>